# File generated by ImageToStl.com - Free Image and 3D model conversion tools

o obj1
v -3 -1 -3
v -3 -2 -3
v -3 -1 -2
v -3 -2 -1
v -3 3 -2
v -3 0 -1
v -3 3 -1
v -3 1 -1
v -3 0 0
v -3 1 0
v -3 -2 0
v -3 3 0
v -3 3 1
v -3 -1 1
v -3 -2 2
v -3 -1 2
v -3 1 -3
v -3 0 -3
v -3 0 -2
v -3 1 -2
v -3 3 -3
v -3 2 -3
v -3 2 -2
v -3 1 1
v -3 0 1
v -3 0 2
v -3 1 2
v -3 2 1
v -3 2 2
v -3 3 2
v -2 0 -3
v -2 -1 -3
v -2 -1 -2
v -2 0 -2
v -2 2 -3
v -2 1 -3
v -2 1 -2
v -2 2 -2
v -2 -2 -2
v -2 -2 -1
v -2 -1 -1
v -2 3 -2
v -2 2 -1
v -2 3 -1
v -2 0 -1
v -2 -1 0
v -2 0 0
v -2 1 -1
v -2 1 0
v -2 2 0
v -2 -2 0
v -2 -2 1
v -2 -1 1
v -2 3 0
v -2 2 1
v -2 3 1
v -2 0 1
v -2 -1 2
v -2 0 2
v -2 1 1
v -2 1 2
v -2 2 2
v -1 -2 -3
v -1 0 -3
v -1 -2 -2
v -1 0 -2
v -1 1 -3
v -1 3 -3
v -1 1 -2
v -1 3 -2
v -1 -1 -1
v -1 -2 -1
v -1 -2 0
v -1 -1 0
v -1 3 -1
v -1 2 -1
v -1 2 0
v -1 3 0
v -1 -2 1
v -1 0 1
v -1 -2 2
v -1 0 2
v -1 1 1
v -1 3 1
v -1 1 2
v -1 3 2
v 0 0 -3
v 0 -2 -3
v 0 -2 -2
v 0 0 -2
v 0 3 -3
v 0 1 -3
v 0 1 -2
v 0 3 -2
v 0 -2 -1
v 0 -1 -1
v 0 -2 0
v 0 -1 0
v 0 2 -1
v 0 3 -1
v 0 2 0
v 0 3 0
v 0 0 1
v 0 -2 1
v 0 -2 2
v 0 0 2
v 0 3 1
v 0 1 1
v 0 1 2
v 0 3 2
v 1 -1 -3
v 1 0 -3
v 1 -1 -2
v 1 0 -2
v 1 1 -3
v 1 2 -3
v 1 1 -2
v 1 2 -2
v 1 -2 -2
v 1 -2 -1
v 1 -1 -1
v 1 3 -2
v 1 2 -1
v 1 3 -1
v 1 0 -1
v 1 -1 0
v 1 0 0
v 1 1 -1
v 1 1 0
v 1 2 0
v 1 -2 0
v 1 -2 1
v 1 -1 1
v 1 3 0
v 1 2 1
v 1 3 1
v 1 0 1
v 1 -1 2
v 1 0 2
v 1 1 1
v 1 1 2
v 1 2 2
v 2 -2 -3
v 2 -1 -3
v 2 -1 -2
v 2 -2 -1
v 2 3 -2
v 2 0 -1
v 2 3 -1
v 2 1 -1
v 2 0 0
v 2 1 0
v 2 -2 0
v 2 3 0
v 2 3 1
v 2 -1 1
v 2 -2 2
v 2 -1 2
v 2 0 -3
v 2 1 -3
v 2 0 -2
v 2 1 -2
v 2 2 -3
v 2 3 -3
v 2 2 -2
v 2 0 1
v 2 1 1
v 2 0 2
v 2 1 2
v 2 2 1
v 2 2 2
v 2 3 2
v -1 -1 1
v 0 -1 1
v -1 2 1
v 0 2 1
v -1 -1 -2
v 0 -1 -2
v -1 2 -2
v 0 2 -2
vn -1 0 0
vn 0 0 0
vn 1 0 0
vn 0 -1 0
vn 0 1 0
vn 0 0 -1
vn 0 0 1
f 1//1 2//1 3//1
f 3//1 2//1 4//1
f 5//1 3//1 4//1
f 5//1 4//1 6//1
f 5//1 6//1 7//1
f 8//1 6//1 9//1
f 8//1 9//1 10//1
f 9//2 11//2 10//2
f 12//1 11//1 13//1
f 13//1 11//1 14//1
f 14//1 11//1 15//1
f 14//1 15//1 16//1
f 17//1 18//1 19//1
f 17//1 19//1 20//1
f 21//1 22//1 23//1
f 21//1 23//1 5//1
f 24//1 25//1 26//1
f 24//1 26//1 27//1
f 13//1 28//1 29//1
f 13//1 29//1 30//1
f 31//1 32//1 33//1
f 31//1 33//1 34//1
f 35//1 36//1 37//1
f 35//1 37//1 38//1
f 39//3 33//3 40//3
f 40//3 33//3 41//3
f 38//3 42//3 43//3
f 43//3 42//3 44//3
f 45//1 41//1 46//1
f 45//1 46//1 47//1
f 43//1 48//1 49//1
f 43//1 49//1 50//1
f 51//3 46//3 52//3
f 52//3 46//3 53//3
f 50//3 54//3 55//3
f 55//3 54//3 56//3
f 57//1 53//1 58//1
f 57//1 58//1 59//1
f 55//1 60//1 61//1
f 55//1 61//1 62//1
f 63//3 64//3 65//3
f 65//3 64//3 66//3
f 67//3 68//3 69//3
f 69//3 68//3 70//3
f 71//1 72//1 73//1
f 71//1 73//1 74//1
f 75//1 76//1 77//1
f 75//1 77//1 78//1
f 79//3 80//3 81//3
f 81//3 80//3 82//3
f 83//3 84//3 85//3
f 85//3 84//3 86//3
f 87//1 88//1 89//1
f 87//1 89//1 90//1
f 91//1 92//1 93//1
f 91//1 93//1 94//1
f 95//3 96//3 97//3
f 97//3 96//3 98//3
f 99//3 100//3 101//3
f 101//3 100//3 102//3
f 103//1 104//1 105//1
f 103//1 105//1 106//1
f 107//1 108//1 109//1
f 107//1 109//1 110//1
f 111//3 112//3 113//3
f 113//3 112//3 114//3
f 115//3 116//3 117//3
f 117//3 116//3 118//3
f 113//1 119//1 120//1
f 113//1 120//1 121//1
f 122//1 118//1 123//1
f 122//1 123//1 124//1
f 121//3 125//3 126//3
f 126//3 125//3 127//3
f 128//3 123//3 129//3
f 129//3 123//3 130//3
f 126//1 131//1 132//1
f 126//1 132//1 133//1
f 134//1 130//1 135//1
f 134//1 135//1 136//1
f 133//3 137//3 138//3
f 138//3 137//3 139//3
f 140//3 135//3 141//3
f 141//3 135//3 142//3
f 143//3 144//3 145//3
f 143//3 145//3 146//3
f 145//3 147//3 146//3
f 146//3 147//3 148//3
f 148//3 147//3 149//3
f 148//3 150//3 151//3
f 151//3 150//3 152//3
f 153//2 151//2 152//2
f 153//3 154//3 155//3
f 153//3 155//3 156//3
f 153//3 156//3 157//3
f 157//3 156//3 158//3
f 159//3 160//3 161//3
f 161//3 160//3 162//3
f 163//3 164//3 165//3
f 165//3 164//3 147//3
f 166//3 167//3 168//3
f 168//3 167//3 169//3
f 170//3 155//3 171//3
f 171//3 155//3 172//3
f 4//4 2//4 40//4
f 40//4 2//4 39//4
f 39//4 2//4 63//4
f 39//4 63//4 65//4
f 15//4 11//4 51//4
f 15//4 51//4 52//4
f 15//4 52//4 79//4
f 15//4 79//4 81//4
f 73//4 72//4 95//4
f 73//4 95//4 97//4
f 89//4 88//4 119//4
f 119//4 88//4 143//4
f 120//4 119//4 143//4
f 120//4 143//4 146//4
f 105//4 104//4 132//4
f 132//4 131//4 153//4
f 105//4 132//4 157//4
f 132//4 153//4 157//4
f 1//5 3//5 32//5
f 32//5 3//5 33//5
f 14//5 16//5 53//5
f 53//5 16//5 58//5
f 53//4 33//4 173//4
f 173//4 33//4 71//4
f 71//4 33//4 96//4
f 96//4 33//4 113//4
f 174//4 96//4 113//4
f 174//4 113//4 133//4
f 173//4 74//4 98//4
f 173//4 98//4 174//4
f 111//5 113//5 144//5
f 144//5 113//5 145//5
f 133//5 138//5 156//5
f 156//5 138//5 158//5
f 19//4 18//4 31//4
f 19//4 31//4 34//4
f 9//4 6//4 45//4
f 9//4 45//4 47//4
f 26//4 25//4 57//4
f 26//4 57//4 59//4
f 66//4 64//4 87//4
f 66//4 87//4 90//4
f 82//4 80//4 103//4
f 82//4 103//4 106//4
f 114//4 112//4 159//4
f 114//4 159//4 161//4
f 127//4 125//4 148//4
f 127//4 148//4 151//4
f 139//4 137//4 166//4
f 139//4 166//4 168//4
f 17//5 20//5 36//5
f 36//5 20//5 37//5
f 8//5 10//5 48//5
f 48//5 10//5 49//5
f 24//5 27//5 60//5
f 60//5 27//5 61//5
f 67//5 69//5 92//5
f 92//5 69//5 93//5
f 83//5 85//5 108//5
f 108//5 85//5 109//5
f 115//5 117//5 160//5
f 160//5 117//5 162//5
f 128//5 129//5 150//5
f 150//5 129//5 152//5
f 140//5 141//5 167//5
f 167//5 141//5 169//5
f 23//4 22//4 35//4
f 23//4 35//4 38//4
f 29//4 28//4 55//4
f 29//4 55//4 62//4
f 38//5 55//5 175//5
f 38//5 175//5 76//5
f 38//5 76//5 99//5
f 38//5 99//5 118//5
f 99//5 176//5 118//5
f 118//5 176//5 135//5
f 77//5 175//5 101//5
f 101//5 175//5 176//5
f 118//4 116//4 163//4
f 118//4 163//4 165//4
f 142//4 135//4 170//4
f 142//4 170//4 171//4
f 21//5 7//5 44//5
f 21//5 44//5 42//5
f 21//5 42//5 68//5
f 68//5 42//5 70//5
f 12//5 30//5 54//5
f 54//5 30//5 56//5
f 56//5 30//5 84//5
f 84//5 30//5 86//5
f 75//5 78//5 100//5
f 100//5 78//5 102//5
f 91//5 94//5 122//5
f 91//5 122//5 164//5
f 122//5 124//5 164//5
f 164//5 124//5 149//5
f 107//5 110//5 136//5
f 134//5 136//5 154//5
f 136//5 110//5 172//5
f 154//5 136//5 172//5
f 63//6 2//6 1//6
f 63//6 1//6 32//6
f 63//6 32//6 31//6
f 63//6 31//6 64//6
f 31//2 18//2 64//2
f 159//6 18//6 17//6
f 159//6 17//6 36//6
f 159//6 36//6 160//6
f 67//6 36//6 35//6
f 35//6 22//6 21//6
f 67//6 35//6 68//6
f 35//6 21//6 68//6
f 143//6 88//6 144//6
f 144//6 88//6 111//6
f 111//6 88//6 87//6
f 111//6 87//6 112//6
f 115//6 92//6 116//6
f 116//6 92//6 91//6
f 163//6 116//6 91//6
f 163//6 91//6 164//6
f 39//7 65//7 33//7
f 33//7 65//7 177//7
f 89//7 119//7 178//7
f 178//7 119//7 113//7
f 33//6 3//6 19//6
f 33//6 19//6 34//6
f 178//6 177//6 66//6
f 178//6 66//6 90//6
f 145//6 113//6 114//6
f 145//6 114//6 161//6
f 37//6 20//6 23//6
f 37//6 23//6 38//6
f 93//6 69//6 179//6
f 93//6 179//6 180//6
f 162//6 117//6 118//6
f 162//6 118//6 165//6
f 38//7 179//7 42//7
f 42//7 179//7 70//7
f 180//7 118//7 94//7
f 94//7 118//7 122//7
f 4//7 40//7 6//7
f 6//7 40//7 45//7
f 95//6 72//6 71//6
f 95//6 71//6 96//6
f 120//7 146//7 125//7
f 125//7 146//7 148//7
f 8//7 48//7 7//7
f 7//7 48//7 44//7
f 128//7 150//7 124//7
f 124//7 150//7 149//7
f 99//6 76//6 75//6
f 99//6 75//6 100//6
f 51//6 11//6 9//6
f 51//6 9//6 47//6
f 73//7 97//7 74//7
f 74//7 97//7 98//7
f 153//6 131//6 127//6
f 153//6 127//6 151//6
f 49//6 10//6 12//6
f 49//6 12//6 54//6
f 152//6 129//6 134//6
f 152//6 134//6 154//6
f 77//7 101//7 78//7
f 78//7 101//7 102//7
f 79//6 52//6 53//6
f 79//6 53//6 173//6
f 132//6 104//6 174//6
f 132//6 174//6 133//6
f 14//7 53//7 25//7
f 25//7 53//7 57//7
f 173//7 174//7 80//7
f 80//7 174//7 103//7
f 133//7 156//7 137//7
f 137//7 156//7 166//7
f 24//7 60//7 28//7
f 28//7 60//7 55//7
f 83//7 108//7 175//7
f 175//7 108//7 176//7
f 140//7 167//7 135//7
f 135//7 167//7 170//7
f 175//6 55//6 56//6
f 175//6 56//6 84//6
f 135//6 176//6 107//6
f 135//6 107//6 136//6
f 15//7 81//7 16//7
f 16//7 81//7 58//7
f 58//7 81//7 59//7
f 59//7 81//7 82//7
f 26//2 59//2 82//2
f 26//7 168//7 27//7
f 27//7 168//7 61//7
f 61//7 168//7 169//7
f 61//7 85//7 62//7
f 29//7 62//7 30//7
f 62//7 85//7 86//7
f 30//7 62//7 86//7
f 105//7 157//7 158//7
f 105//7 158//7 138//7
f 105//7 138//7 106//7
f 106//7 138//7 139//7
f 109//7 141//7 142//7
f 109//7 142//7 110//7
f 142//7 171//7 110//7
f 110//7 171//7 172//7
# Vertices: 180, normals: 7, texture coordinates: 0, faces: 308

