# File generated by ImageToStl.com - Free Image and 3D model conversion tools

o obj1
v -3 1 -3
v -3 0 -3
v -3 0 -1
v -3 1 -1
v -3 -2 -1
v -3 3 -1
v -3 -2 0
v -3 0 0
v -3 3 0
v -3 1 0
v -3 0 2
v -3 1 2
v -2 0 -2
v -2 1 -2
v -2 0 -1
v -2 1 -1
v -2 -1 -1
v -2 2 -1
v -2 -1 0
v -2 0 0
v -2 2 0
v -2 1 0
v -2 0 1
v -2 1 1
v -1 0 -3
v -1 -2 -3
v -1 0 -2
v -1 -1 -2
v -1 -2 -1
v -1 -1 -1
v -1 3 -3
v -1 1 -3
v -1 1 -2
v -1 2 -2
v -1 2 -1
v -1 3 -1
v -1 1 -1
v -1 0 -1
v -1 0 0
v -1 1 0
v -1 -1 0
v -1 -2 0
v -1 -1 1
v -1 -2 2
v -1 0 1
v -1 0 2
v -1 3 0
v -1 2 0
v -1 2 1
v -1 1 1
v -1 1 2
v -1 3 2
v 0 -2 -3
v 0 0 -3
v 0 0 -2
v 0 -1 -2
v 0 -2 -1
v 0 -1 -1
v 0 1 -3
v 0 3 -3
v 0 1 -2
v 0 2 -2
v 0 2 -1
v 0 3 -1
v 0 0 -1
v 0 1 -1
v 0 0 0
v 0 1 0
v 0 -2 0
v 0 -1 0
v 0 -1 1
v 0 -2 2
v 0 0 1
v 0 0 2
v 0 2 0
v 0 3 0
v 0 2 1
v 0 1 1
v 0 1 2
v 0 3 2
v 1 1 -2
v 1 0 -2
v 1 0 -1
v 1 1 -1
v 1 -1 -1
v 1 2 -1
v 1 -1 0
v 1 0 0
v 1 2 0
v 1 1 0
v 1 0 1
v 1 1 1
v 2 0 -3
v 2 1 -3
v 2 0 -1
v 2 1 -1
v 2 -2 -1
v 2 3 -1
v 2 -2 0
v 2 0 0
v 2 3 0
v 2 1 0
v 2 0 2
v 2 1 2
vn -1 0 0
vn 0 0 0
vn 1 0 0
vn 0 -1 0
vn 0 1 0
vn 0 0 -1
vn 0 0 1
f 1//1 2//1 3//1
f 1//1 3//1 4//1
f 3//2 5//2 4//2
f 6//1 5//1 7//1
f 6//1 7//1 8//1
f 6//1 8//1 9//1
f 10//1 8//1 11//1
f 10//1 11//1 12//1
f 13//3 14//3 15//3
f 15//3 14//3 16//3
f 17//2 15//2 16//2
f 17//3 18//3 19//3
f 19//3 18//3 20//3
f 20//3 18//3 21//3
f 20//3 22//3 23//3
f 23//3 22//3 24//3
f 25//1 26//1 27//1
f 27//1 26//1 28//1
f 28//1 26//1 29//1
f 28//1 29//1 30//1
f 31//1 32//1 33//1
f 31//1 33//1 34//1
f 31//1 34//1 35//1
f 31//1 35//1 36//1
f 37//1 38//1 39//1
f 37//1 39//1 40//1
f 41//1 42//1 43//1
f 43//1 42//1 44//1
f 45//1 43//1 44//1
f 45//1 44//1 46//1
f 47//1 48//1 49//1
f 49//1 50//1 51//1
f 47//1 49//1 52//1
f 49//1 51//1 52//1
f 53//3 54//3 55//3
f 53//3 55//3 56//3
f 53//3 56//3 57//3
f 57//3 56//3 58//3
f 59//3 60//3 61//3
f 61//3 60//3 62//3
f 62//3 60//3 63//3
f 63//3 60//3 64//3
f 65//3 66//3 67//3
f 67//3 66//3 68//3
f 69//3 70//3 71//3
f 69//3 71//3 72//3
f 71//3 73//3 72//3
f 72//3 73//3 74//3
f 75//3 76//3 77//3
f 78//3 77//3 79//3
f 77//3 76//3 80//3
f 79//3 77//3 80//3
f 81//1 82//1 83//1
f 81//1 83//1 84//1
f 83//2 85//2 84//2
f 86//1 85//1 87//1
f 86//1 87//1 88//1
f 86//1 88//1 89//1
f 90//1 88//1 91//1
f 90//1 91//1 92//1
f 93//3 94//3 95//3
f 95//3 94//3 96//3
f 97//2 95//2 96//2
f 97//3 98//3 99//3
f 99//3 98//3 100//3
f 100//3 98//3 101//3
f 100//3 102//3 103//3
f 103//3 102//3 104//3
f 7//4 5//4 29//4
f 7//4 29//4 42//4
f 29//2 26//2 42//2
f 44//4 26//4 53//4
f 44//4 53//4 57//4
f 44//4 57//4 72//4
f 69//4 57//4 97//4
f 69//4 97//4 99//4
f 17//5 19//5 30//5
f 30//5 19//5 41//5
f 28//2 30//2 41//2
f 28//5 43//5 56//5
f 56//5 43//5 58//5
f 58//5 43//5 71//5
f 58//5 70//5 85//5
f 85//5 70//5 87//5
f 3//4 2//4 15//4
f 15//4 2//4 13//4
f 13//4 2//4 25//4
f 13//4 25//4 27//4
f 11//4 8//4 20//4
f 11//4 20//4 23//4
f 11//4 23//4 45//4
f 11//4 45//4 46//4
f 39//4 38//4 65//4
f 39//4 65//4 67//4
f 55//4 54//4 82//4
f 82//4 54//4 93//4
f 83//4 82//4 93//4
f 83//4 93//4 95//4
f 74//4 73//4 91//4
f 91//4 88//4 100//4
f 74//4 91//4 103//4
f 91//4 100//4 103//4
f 1//5 4//5 16//5
f 1//5 16//5 14//5
f 1//5 14//5 32//5
f 32//5 14//5 33//5
f 10//5 12//5 22//5
f 22//5 12//5 24//5
f 24//5 12//5 50//5
f 50//5 12//5 51//5
f 37//5 40//5 66//5
f 66//5 40//5 68//5
f 59//5 61//5 81//5
f 59//5 81//5 94//5
f 81//5 84//5 94//5
f 94//5 84//5 96//5
f 78//5 79//5 92//5
f 90//5 92//5 102//5
f 92//5 79//5 104//5
f 102//5 92//5 104//5
f 21//4 18//4 35//4
f 21//4 35//4 48//4
f 35//2 34//2 48//2
f 49//4 34//4 62//4
f 49//4 62//4 63//4
f 49//4 63//4 77//4
f 75//4 63//4 86//4
f 75//4 86//4 89//4
f 6//5 9//5 36//5
f 36//5 9//5 47//5
f 31//2 36//2 47//2
f 31//5 52//5 60//5
f 60//5 52//5 64//5
f 64//5 52//5 80//5
f 64//5 76//5 98//5
f 98//5 76//5 101//5
f 53//6 26//6 25//6
f 53//6 25//6 54//6
f 25//2 2//2 54//2
f 93//6 2//6 1//6
f 93//6 1//6 32//6
f 93//6 32//6 94//6
f 59//6 32//6 31//6
f 59//6 31//6 60//6
f 28//7 56//7 27//7
f 27//7 56//7 55//7
f 13//2 27//2 55//2
f 13//7 82//7 14//7
f 14//7 82//7 33//7
f 33//7 82//7 81//7
f 33//7 61//7 34//7
f 34//7 61//7 62//7
f 29//6 5//6 30//6
f 30//6 5//6 17//6
f 17//6 5//6 3//6
f 17//6 3//6 15//6
f 97//6 57//6 58//6
f 97//6 58//6 85//6
f 97//6 85//6 83//6
f 97//6 83//6 95//6
f 65//6 38//6 37//6
f 65//6 37//6 66//6
f 16//6 4//6 18//6
f 18//6 4//6 6//6
f 35//6 18//6 6//6
f 35//6 6//6 36//6
f 96//6 84//6 86//6
f 86//6 63//6 64//6
f 96//6 86//6 98//6
f 86//6 64//6 98//6
f 7//7 42//7 41//7
f 7//7 41//7 19//7
f 7//7 19//7 8//7
f 8//7 19//7 20//7
f 69//7 99//7 70//7
f 70//7 99//7 87//7
f 87//7 99//7 88//7
f 88//7 99//7 100//7
f 39//7 67//7 40//7
f 40//7 67//7 68//7
f 10//7 22//7 21//7
f 10//7 21//7 9//7
f 21//7 48//7 9//7
f 9//7 48//7 47//7
f 90//7 102//7 89//7
f 75//7 89//7 76//7
f 89//7 102//7 101//7
f 76//7 89//7 101//7
f 71//6 43//6 45//6
f 71//6 45//6 73//6
f 45//2 23//2 73//2
f 91//6 23//6 24//6
f 91//6 24//6 50//6
f 91//6 50//6 92//6
f 78//6 50//6 49//6
f 78//6 49//6 77//6
f 44//7 72//7 46//7
f 46//7 72//7 74//7
f 11//2 46//2 74//2
f 11//7 103//7 12//7
f 12//7 103//7 51//7
f 51//7 103//7 104//7
f 51//7 79//7 52//7
f 52//7 79//7 80//7
# Vertices: 104, normals: 7, texture coordinates: 0, faces: 204

