# File generated by ImageToStl.com - Free Image and 3D model conversion tools

o obj1
v -3 1 -1
v -3 0 -1
v -3 0 0
v -3 1 0
v -2 1 -2
v -2 0 -2
v -2 0 -1
v -2 1 -1
v -2 -1 -1
v -2 -1 0
v -2 0 0
v -2 2 -1
v -2 1 0
v -2 2 0
v -2 0 1
v -2 1 1
v -1 1 -3
v -1 0 -3
v -1 0 -2
v -1 1 -2
v -1 -1 -2
v -1 -1 -1
v -1 0 -1
v -1 2 -2
v -1 1 -1
v -1 2 -1
v -1 -2 -1
v -1 -2 0
v -1 -1 0
v -1 0 0
v -1 1 0
v -1 3 -1
v -1 2 0
v -1 3 0
v -1 -1 1
v -1 0 1
v -1 1 1
v -1 2 1
v -1 0 2
v -1 1 2
v 0 0 -3
v 0 1 -3
v 0 0 -2
v 0 1 -2
v 0 -1 -2
v 0 -1 -1
v 0 0 -1
v 0 2 -2
v 0 1 -1
v 0 2 -1
v 0 -2 -1
v 0 -2 0
v 0 -1 0
v 0 0 0
v 0 1 0
v 0 3 -1
v 0 2 0
v 0 3 0
v 0 -1 1
v 0 0 1
v 0 1 1
v 0 2 1
v 0 0 2
v 0 1 2
v 1 0 -2
v 1 1 -2
v 1 0 -1
v 1 1 -1
v 1 -1 -1
v 1 -1 0
v 1 0 0
v 1 2 -1
v 1 1 0
v 1 2 0
v 1 0 1
v 1 1 1
v 2 0 -1
v 2 1 -1
v 2 0 0
v 2 1 0
vn -1 0 0
vn 1 0 0
vn 0 -1 0
vn 0 1 0
vn 0 0 -1
vn 0 0 1
f 1//1 2//1 3//1
f 1//1 3//1 4//1
f 5//1 6//1 7//1
f 5//1 7//1 8//1
f 7//1 9//1 10//1
f 7//1 10//1 11//1
f 12//1 8//1 13//1
f 12//1 13//1 14//1
f 13//1 11//1 15//1
f 13//1 15//1 16//1
f 17//1 18//1 19//1
f 17//1 19//1 20//1
f 19//1 21//1 22//1
f 19//1 22//1 23//1
f 24//1 20//1 25//1
f 24//1 25//1 26//1
f 22//1 27//1 28//1
f 22//1 28//1 29//1
f 23//2 25//2 30//2
f 30//2 25//2 31//2
f 32//1 26//1 33//1
f 32//1 33//1 34//1
f 30//1 29//1 35//1
f 30//1 35//1 36//1
f 33//1 31//1 37//1
f 33//1 37//1 38//1
f 37//1 36//1 39//1
f 37//1 39//1 40//1
f 41//2 42//2 43//2
f 43//2 42//2 44//2
f 45//2 43//2 46//2
f 46//2 43//2 47//2
f 44//2 48//2 49//2
f 49//2 48//2 50//2
f 51//2 46//2 52//2
f 52//2 46//2 53//2
f 49//1 47//1 54//1
f 49//1 54//1 55//1
f 50//2 56//2 57//2
f 57//2 56//2 58//2
f 53//2 54//2 59//2
f 59//2 54//2 60//2
f 55//2 57//2 61//2
f 61//2 57//2 62//2
f 60//2 61//2 63//2
f 63//2 61//2 64//2
f 65//2 66//2 67//2
f 67//2 66//2 68//2
f 69//2 67//2 70//2
f 70//2 67//2 71//2
f 68//2 72//2 73//2
f 73//2 72//2 74//2
f 71//2 73//2 75//2
f 75//2 73//2 76//2
f 77//2 78//2 79//2
f 79//2 78//2 80//2
f 28//3 27//3 51//3
f 28//3 51//3 52//3
f 10//3 9//3 22//3
f 10//3 22//3 29//3
f 22//3 21//3 45//3
f 22//3 45//3 46//3
f 35//3 29//3 53//3
f 35//3 53//3 59//3
f 53//3 46//3 69//3
f 53//3 69//3 70//3
f 3//3 2//3 7//3
f 3//3 7//3 11//3
f 7//3 6//3 19//3
f 7//3 19//3 23//3
f 15//3 11//3 30//3
f 15//3 30//3 36//3
f 19//3 18//3 41//3
f 19//3 41//3 43//3
f 23//4 30//4 47//4
f 47//4 30//4 54//4
f 39//3 36//3 60//3
f 39//3 60//3 63//3
f 47//3 43//3 65//3
f 47//3 65//3 67//3
f 60//3 54//3 71//3
f 60//3 71//3 75//3
f 71//3 67//3 77//3
f 71//3 77//3 79//3
f 1//4 4//4 8//4
f 8//4 4//4 13//4
f 5//4 8//4 20//4
f 20//4 8//4 25//4
f 13//4 16//4 31//4
f 31//4 16//4 37//4
f 17//4 20//4 42//4
f 42//4 20//4 44//4
f 31//3 25//3 49//3
f 31//3 49//3 55//3
f 37//4 40//4 61//4
f 61//4 40//4 64//4
f 44//4 49//4 66//4
f 66//4 49//4 68//4
f 55//4 61//4 73//4
f 73//4 61//4 76//4
f 68//4 73//4 78//4
f 78//4 73//4 80//4
f 12//4 14//4 26//4
f 26//4 14//4 33//4
f 24//4 26//4 48//4
f 48//4 26//4 50//4
f 33//4 38//4 57//4
f 57//4 38//4 62//4
f 50//4 57//4 72//4
f 72//4 57//4 74//4
f 32//4 34//4 56//4
f 56//4 34//4 58//4
f 41//5 18//5 17//5
f 41//5 17//5 42//5
f 45//5 21//5 19//5
f 45//5 19//5 43//5
f 19//5 6//5 5//5
f 19//5 5//5 20//5
f 65//5 43//5 44//5
f 65//5 44//5 66//5
f 44//5 20//5 24//5
f 44//5 24//5 48//5
f 51//5 27//5 22//5
f 51//5 22//5 46//5
f 22//5 9//5 7//5
f 22//5 7//5 23//5
f 69//5 46//5 47//5
f 69//5 47//5 67//5
f 7//5 2//5 1//5
f 7//5 1//5 8//5
f 23//6 47//6 25//6
f 25//6 47//6 49//6
f 77//5 67//5 68//5
f 77//5 68//5 78//5
f 25//5 8//5 12//5
f 25//5 12//5 26//5
f 68//5 49//5 50//5
f 68//5 50//5 72//5
f 50//5 26//5 32//5
f 50//5 32//5 56//5
f 28//6 52//6 29//6
f 29//6 52//6 53//6
f 10//6 29//6 11//6
f 11//6 29//6 30//6
f 53//6 70//6 54//6
f 54//6 70//6 71//6
f 3//6 11//6 4//6
f 4//6 11//6 13//6
f 54//5 30//5 31//5
f 54//5 31//5 55//5
f 71//6 79//6 73//6
f 73//6 79//6 80//6
f 13//6 31//6 14//6
f 14//6 31//6 33//6
f 55//6 73//6 57//6
f 57//6 73//6 74//6
f 33//6 57//6 34//6
f 34//6 57//6 58//6
f 35//6 59//6 36//6
f 36//6 59//6 60//6
f 15//6 36//6 16//6
f 16//6 36//6 37//6
f 60//6 75//6 61//6
f 61//6 75//6 76//6
f 37//6 61//6 38//6
f 38//6 61//6 62//6
f 39//6 63//6 40//6
f 40//6 63//6 64//6
# Vertices: 80, normals: 6, texture coordinates: 0, faces: 168

