# File generated by ImageToStl.com - Free Image and 3D model conversion tools

o obj1
v -3 2 -3
v -3 -1 -3
v -3 -1 -2
v -3 0 -2
v -3 2 -2
v -3 1 -2
v -3 0 -1
v -3 1 -1
v -3 -2 -2
v -3 -1 -1
v -3 3 -1
v -3 3 0
v -3 -1 0
v -3 -2 1
v -3 -1 1
v -3 3 -2
v -3 2 -1
v -3 1 0
v -3 0 0
v -3 0 1
v -3 1 1
v -3 2 1
v -3 -1 2
v -3 2 2
v -3 2 0
v -3 3 1
v -2 -1 -3
v -2 -2 -3
v -2 -2 -2
v -2 -1 -2
v -2 0 -3
v -2 0 -2
v -2 1 -3
v -2 2 -3
v -2 1 -2
v -2 2 -2
v -2 3 -3
v -2 3 -2
v -2 -2 -1
v -2 -1 -1
v -2 0 -1
v -2 1 -1
v -2 2 -1
v -2 -1 0
v -2 0 0
v -2 2 0
v -2 1 0
v -2 0 1
v -2 1 1
v -2 3 -1
v -2 -2 0
v -2 -2 1
v -2 -1 1
v -2 3 0
v -2 2 1
v -2 3 1
v -2 -2 2
v -2 -1 2
v -2 0 2
v -2 1 2
v -2 2 2
v -2 3 2
v -1 0 -3
v -1 -1 -3
v -1 -1 -2
v -1 0 -2
v -1 2 -3
v -1 1 -3
v -1 1 -2
v -1 2 -2
v -1 -2 -2
v -1 -2 -1
v -1 -1 -1
v -1 3 -2
v -1 2 -1
v -1 3 -1
v -1 -1 0
v -1 -2 0
v -1 -2 1
v -1 -1 1
v -1 3 0
v -1 2 0
v -1 2 1
v -1 3 1
v -1 0 1
v -1 -1 2
v -1 0 2
v -1 1 1
v -1 1 2
v -1 2 2
v 0 -1 -3
v 0 0 -3
v 0 -1 -2
v 0 0 -2
v 0 1 -3
v 0 2 -3
v 0 1 -2
v 0 2 -2
v 0 -2 -2
v 0 -2 -1
v 0 -1 -1
v 0 3 -2
v 0 2 -1
v 0 3 -1
v 0 -2 0
v 0 -1 0
v 0 -2 1
v 0 -1 1
v 0 2 0
v 0 3 0
v 0 2 1
v 0 3 1
v 0 0 1
v 0 -1 2
v 0 0 2
v 0 1 1
v 0 1 2
v 0 2 2
v 1 -2 -3
v 1 -1 -3
v 1 -2 -2
v 1 -1 -2
v 1 0 -3
v 1 0 -2
v 1 2 -3
v 1 1 -3
v 1 1 -2
v 1 2 -2
v 1 3 -3
v 1 3 -2
v 1 -2 -1
v 1 -1 -1
v 1 0 -1
v 1 1 -1
v 1 2 -1
v 1 -1 0
v 1 0 0
v 1 2 0
v 1 1 0
v 1 0 1
v 1 1 1
v 1 3 -1
v 1 -2 0
v 1 -2 1
v 1 -1 1
v 1 3 0
v 1 2 1
v 1 3 1
v 1 -2 2
v 1 -1 2
v 1 0 2
v 1 1 2
v 1 2 2
v 1 3 2
v 2 -1 -3
v 2 2 -3
v 2 -1 -2
v 2 0 -2
v 2 2 -2
v 2 1 -2
v 2 0 -1
v 2 1 -1
v 2 -2 -2
v 2 -1 -1
v 2 3 -1
v 2 3 0
v 2 -1 0
v 2 -2 1
v 2 -1 1
v 2 3 -2
v 2 2 -1
v 2 0 0
v 2 1 0
v 2 0 1
v 2 1 1
v 2 2 1
v 2 -1 2
v 2 2 2
v 2 2 0
v 2 3 1
v -1 -2 2
v 0 -2 2
v -1 3 2
v 0 3 2
v 2 0 -3
v 2 1 -3
v 2 0 2
v 2 1 2
vn -1 0 0
vn 0 0 0
vn 1 0 0
vn 0 -1 0
vn 0 1 0
vn 0 0 -1
vn 0 0 1
f 1//1 2//1 3//1
f 1//1 3//1 4//1
f 1//1 4//1 5//1
f 6//1 4//1 7//1
f 6//1 7//1 8//1
f 3//1 9//1 10//1
f 11//1 10//1 12//1
f 12//1 10//1 13//1
f 10//1 9//1 13//1
f 13//1 9//1 14//1
f 13//1 14//1 15//1
f 16//1 5//1 17//1
f 16//1 17//1 11//1
f 18//1 19//1 20//1
f 18//1 20//1 21//1
f 20//2 15//2 21//2
f 22//1 15//1 23//1
f 22//1 23//1 24//1
f 12//1 25//1 22//1
f 12//1 22//1 26//1
f 27//1 28//1 29//1
f 27//1 29//1 30//1
f 27//3 31//3 30//3
f 30//3 31//3 32//3
f 33//3 34//3 35//3
f 35//3 34//3 36//3
f 37//1 34//1 36//1
f 37//1 36//1 38//1
f 29//3 30//3 39//3
f 39//3 30//3 40//3
f 32//3 35//3 41//3
f 41//3 35//3 42//3
f 40//2 41//2 42//2
f 40//3 43//3 44//3
f 44//3 43//3 45//3
f 45//3 43//3 46//3
f 45//3 47//3 48//3
f 48//3 47//3 49//3
f 36//3 38//3 43//3
f 43//3 38//3 50//3
f 51//3 44//3 52//3
f 52//3 44//3 53//3
f 46//3 54//3 55//3
f 55//3 54//3 56//3
f 53//1 52//1 57//1
f 53//1 57//1 58//1
f 53//3 48//3 58//3
f 58//3 48//3 59//3
f 49//3 55//3 60//3
f 60//3 55//3 61//3
f 56//1 55//1 61//1
f 56//1 61//1 62//1
f 63//1 64//1 65//1
f 63//1 65//1 66//1
f 67//1 68//1 69//1
f 67//1 69//1 70//1
f 65//1 71//1 72//1
f 65//1 72//1 73//1
f 74//1 70//1 75//1
f 74//1 75//1 76//1
f 77//1 78//1 79//1
f 77//1 79//1 80//1
f 81//1 82//1 83//1
f 81//1 83//1 84//1
f 85//1 80//1 86//1
f 85//1 86//1 87//1
f 83//1 88//1 89//1
f 83//1 89//1 90//1
f 91//3 92//3 93//3
f 93//3 92//3 94//3
f 95//3 96//3 97//3
f 97//3 96//3 98//3
f 99//3 93//3 100//3
f 100//3 93//3 101//3
f 98//3 102//3 103//3
f 103//3 102//3 104//3
f 105//3 106//3 107//3
f 107//3 106//3 108//3
f 109//3 110//3 111//3
f 111//3 110//3 112//3
f 108//3 113//3 114//3
f 114//3 113//3 115//3
f 116//3 111//3 117//3
f 117//3 111//3 118//3
f 119//3 120//3 121//3
f 121//3 120//3 122//3
f 123//1 120//1 122//1
f 123//1 122//1 124//1
f 125//1 126//1 127//1
f 125//1 127//1 128//1
f 125//3 129//3 128//3
f 128//3 129//3 130//3
f 122//1 121//1 131//1
f 122//1 131//1 132//1
f 127//1 124//1 133//1
f 127//1 133//1 134//1
f 133//2 132//2 134//2
f 135//1 132//1 136//1
f 135//1 136//1 137//1
f 135//1 137//1 138//1
f 139//1 137//1 140//1
f 139//1 140//1 141//1
f 130//1 128//1 135//1
f 130//1 135//1 142//1
f 136//1 143//1 144//1
f 136//1 144//1 145//1
f 146//1 138//1 147//1
f 146//1 147//1 148//1
f 144//3 145//3 149//3
f 149//3 145//3 150//3
f 140//1 145//1 150//1
f 140//1 150//1 151//1
f 147//1 141//1 152//1
f 147//1 152//1 153//1
f 147//3 148//3 153//3
f 153//3 148//3 154//3
f 155//3 156//3 157//3
f 157//3 156//3 158//3
f 158//3 156//3 159//3
f 158//3 160//3 161//3
f 161//3 160//3 162//3
f 163//3 157//3 164//3
f 164//3 165//3 166//3
f 164//3 166//3 167//3
f 163//3 164//3 167//3
f 163//3 167//3 168//3
f 168//3 167//3 169//3
f 159//3 170//3 171//3
f 171//3 170//3 165//3
f 172//3 173//3 174//3
f 174//3 173//3 175//3
f 169//2 174//2 175//2
f 169//3 176//3 177//3
f 177//3 176//3 178//3
f 179//3 166//3 176//3
f 176//3 166//3 180//3
f 14//4 9//4 29//4
f 14//4 29//4 39//4
f 14//4 39//4 52//4
f 51//4 39//4 72//4
f 51//4 72//4 78//4
f 29//4 28//4 71//4
f 181//4 71//4 182//4
f 182//4 71//4 99//4
f 71//4 28//4 99//4
f 99//4 28//4 119//4
f 99//4 119//4 121//4
f 57//4 52//4 79//4
f 57//4 79//4 181//4
f 105//4 100//4 131//4
f 105//4 131//4 143//4
f 131//2 121//2 143//2
f 144//4 121//4 163//4
f 144//4 163//4 168//4
f 182//4 107//4 144//4
f 182//4 144//4 149//4
f 3//4 2//4 27//4
f 3//4 27//4 30//4
f 3//5 10//5 30//5
f 30//5 10//5 40//5
f 13//5 15//5 44//5
f 44//5 15//5 53//5
f 23//4 15//4 53//4
f 23//4 53//4 58//4
f 27//5 30//5 64//5
f 64//5 30//5 65//5
f 40//5 44//5 73//5
f 73//5 44//5 77//5
f 65//2 73//2 77//2
f 65//5 80//5 93//5
f 93//5 80//5 101//5
f 101//5 80//5 108//5
f 101//5 106//5 132//5
f 132//5 106//5 136//5
f 53//5 58//5 80//5
f 80//5 58//5 86//5
f 91//5 93//5 120//5
f 120//5 93//5 122//5
f 108//5 114//5 145//5
f 145//5 114//5 150//5
f 122//4 120//4 155//4
f 122//4 155//4 157//4
f 122//5 132//5 157//5
f 157//5 132//5 164//5
f 136//5 145//5 167//5
f 167//5 145//5 169//5
f 150//4 145//4 169//4
f 150//4 169//4 177//4
f 7//4 4//4 32//4
f 7//4 32//4 41//4
f 20//4 19//4 45//4
f 20//4 45//4 48//4
f 32//4 31//4 63//4
f 32//4 63//4 66//4
f 59//4 48//4 85//4
f 59//4 85//4 87//4
f 94//4 92//4 123//4
f 94//4 123//4 124//4
f 115//4 113//4 140//4
f 115//4 140//4 151//4
f 133//4 124//4 158//4
f 133//4 158//4 161//4
f 140//4 137//4 172//4
f 140//4 172//4 174//4
f 6//5 8//5 35//5
f 35//5 8//5 42//5
f 18//5 21//5 47//5
f 47//5 21//5 49//5
f 33//5 35//5 68//5
f 68//5 35//5 69//5
f 49//5 60//5 88//5
f 88//5 60//5 89//5
f 95//5 97//5 126//5
f 126//5 97//5 127//5
f 116//5 117//5 141//5
f 141//5 117//5 152//5
f 127//5 134//5 160//5
f 160//5 134//5 162//5
f 139//5 141//5 173//5
f 173//5 141//5 175//5
f 1//5 5//5 34//5
f 34//5 5//5 36//5
f 17//4 5//4 36//4
f 17//4 36//4 43//4
f 22//4 25//4 46//4
f 22//4 46//4 55//4
f 22//5 24//5 55//5
f 55//5 24//5 61//5
f 36//4 34//4 67//4
f 36//4 67//4 70//4
f 46//4 43//4 75//4
f 46//4 75//4 82//4
f 75//2 70//2 82//2
f 83//4 70//4 98//4
f 83//4 98//4 103//4
f 83//4 103//4 111//4
f 109//4 103//4 135//4
f 109//4 135//4 138//4
f 61//4 55//4 83//4
f 61//4 83//4 90//4
f 98//4 96//4 125//4
f 98//4 125//4 128//4
f 118//4 111//4 147//4
f 118//4 147//4 153//4
f 125//5 128//5 156//5
f 156//5 128//5 159//5
f 135//4 128//4 159//4
f 135//4 159//4 171//4
f 147//4 138//4 179//4
f 147//4 179//4 176//4
f 147//5 153//5 176//5
f 176//5 153//5 178//5
f 16//5 26//5 38//5
f 38//5 26//5 50//5
f 50//5 26//5 56//5
f 50//5 54//5 76//5
f 76//5 54//5 81//5
f 37//5 38//5 74//5
f 74//5 183//5 184//5
f 74//5 184//5 102//5
f 37//5 74//5 102//5
f 37//5 102//5 129//5
f 129//5 102//5 130//5
f 56//5 62//5 84//5
f 84//5 62//5 183//5
f 104//5 110//5 142//5
f 142//5 110//5 146//5
f 130//2 142//2 146//2
f 130//5 148//5 170//5
f 170//5 148//5 180//5
f 112//5 184//5 148//5
f 148//5 184//5 154//5
f 119//6 28//6 27//6
f 119//6 27//6 64//6
f 119//6 64//6 120//6
f 91//6 64//6 63//6
f 91//6 63//6 92//6
f 27//6 2//6 31//6
f 185//6 31//6 186//6
f 186//6 31//6 33//6
f 31//6 2//6 33//6
f 33//6 2//6 1//6
f 33//6 1//6 34//6
f 155//6 120//6 123//6
f 155//6 123//6 185//6
f 95//6 68//6 67//6
f 95//6 67//6 96//6
f 67//2 34//2 96//2
f 125//6 34//6 37//6
f 125//6 37//6 129//6
f 186//6 126//6 125//6
f 186//6 125//6 156//6
f 29//6 9//6 3//6
f 29//6 3//6 30//6
f 29//7 71//7 30//7
f 30//7 71//7 65//7
f 99//7 121//7 93//7
f 93//7 121//7 122//7
f 163//6 121//6 122//6
f 163//6 122//6 157//6
f 3//7 30//7 4//7
f 4//7 30//7 32//7
f 65//7 93//7 66//7
f 66//7 93//7 94//7
f 32//2 66//2 94//2
f 32//7 124//7 35//7
f 35//7 124//7 69//7
f 69//7 124//7 127//7
f 69//7 97//7 70//7
f 70//7 97//7 98//7
f 122//7 157//7 124//7
f 124//7 157//7 158//7
f 6//7 35//7 5//7
f 5//7 35//7 36//7
f 127//7 160//7 128//7
f 128//7 160//7 159//7
f 36//6 5//6 16//6
f 36//6 16//6 38//6
f 36//7 70//7 38//7
f 38//7 70//7 74//7
f 98//7 128//7 102//7
f 102//7 128//7 130//7
f 159//6 128//6 130//6
f 159//6 130//6 170//6
f 72//6 39//6 40//6
f 72//6 40//6 73//6
f 131//6 100//6 101//6
f 131//6 101//6 132//6
f 40//6 10//6 7//6
f 40//6 7//6 41//6
f 164//6 132//6 133//6
f 164//6 133//6 161//6
f 42//6 8//6 17//6
f 42//6 17//6 43//6
f 162//6 134//6 135//6
f 162//6 135//6 171//6
f 75//6 43//6 50//6
f 75//6 50//6 76//6
f 135//6 103//6 104//6
f 135//6 104//6 142//6
f 51//7 78//7 44//7
f 44//7 78//7 77//7
f 105//7 143//7 106//7
f 106//7 143//7 136//7
f 13//7 44//7 19//7
f 19//7 44//7 45//7
f 136//7 167//7 137//7
f 137//7 167//7 172//7
f 18//7 47//7 25//7
f 25//7 47//7 46//7
f 139//7 173//7 138//7
f 138//7 173//7 179//7
f 46//7 82//7 54//7
f 54//7 82//7 81//7
f 109//7 138//7 110//7
f 110//7 138//7 146//7
f 14//7 52//7 15//7
f 15//7 52//7 53//7
f 79//6 52//6 53//6
f 79//6 53//6 80//6
f 144//6 107//6 108//6
f 144//6 108//6 145//6
f 144//7 168//7 145//7
f 145//7 168//7 169//7
f 53//6 15//6 20//6
f 53//6 20//6 48//6
f 108//6 80//6 85//6
f 108//6 85//6 113//6
f 85//2 48//2 113//2
f 140//6 48//6 49//6
f 140//6 49//6 88//6
f 140//6 88//6 141//6
f 116//6 88//6 83//6
f 116//6 83//6 111//6
f 169//6 145//6 140//6
f 169//6 140//6 174//6
f 49//6 21//6 22//6
f 49//6 22//6 55//6
f 175//6 141//6 147//6
f 175//6 147//6 176//6
f 22//7 55//7 26//7
f 26//7 55//7 56//7
f 83//6 55//6 56//6
f 83//6 56//6 84//6
f 147//6 111//6 112//6
f 147//6 112//6 148//6
f 147//7 176//7 148//7
f 148//7 176//7 180//7
f 57//7 149//7 58//7
f 58//7 149//7 86//7
f 86//7 149//7 150//7
f 86//7 114//7 87//7
f 87//7 114//7 115//7
f 23//7 58//7 59//7
f 59//7 187//7 188//7
f 59//7 188//7 60//7
f 23//7 59//7 60//7
f 23//7 60//7 24//7
f 24//7 60//7 61//7
f 150//7 177//7 151//7
f 151//7 177//7 187//7
f 89//7 117//7 90//7
f 90//7 117//7 118//7
f 61//2 90//2 118//2
f 61//7 153//7 62//7
f 62//7 153//7 154//7
f 152//7 188//7 153//7
f 153//7 188//7 178//7
# Vertices: 188, normals: 7, texture coordinates: 0, faces: 408

